<svg width="170" height="42" viewBox="0 0 170 42" fill="none" xmlns="http://www.w3.org/2000/svg">
<g clip-path="url(#clip0)">
<path d="M30.541 12.085L29.2593 11.1122C29.3033 8.69938 28.7378 4.47538 24.9116 0.987387L24.9053 0.980987C23.4288 -0.337412 21.1921 -0.337412 19.7031 0.980987C18.8172 1.76819 17.6737 2.20339 16.4988 2.20339C15.3176 2.20339 14.1804 1.76819 13.2945 0.980987C11.8055 -0.337412 9.5688 -0.337412 8.07348 0.993786C4.41057 4.34738 3.67548 8.27698 3.74459 11.0994L2.46917 12.0594C0.923581 13.2242 0 15.0738 0 17.0194V19.125C0 26.1074 2.72676 32.9618 7.10592 37.0065C10.6934 40.3153 13.6778 41.8641 16.4988 41.8705C19.3072 41.8641 22.2916 40.3217 25.8791 37.0065C30.2646 32.9618 32.985 26.1074 32.985 19.1186V17.013C32.9913 15.0738 32.074 13.2242 30.541 12.085Z" fill="white"/>
<path d="M29.3943 13.6778L27.2926 12.0803C27.5122 9.96306 27.3302 5.81841 23.6538 2.45008C22.8822 1.75717 21.709 1.76358 20.931 2.4565C19.7014 3.55361 18.1267 4.1567 16.4955 4.1567C14.8644 4.1567 13.2896 3.55361 12.06 2.4565C11.2758 1.76358 10.1089 1.75717 9.3372 2.45008C5.54787 5.9339 5.4914 10.0593 5.69844 12.0739L3.59674 13.6714C2.53648 14.4606 1.90283 15.7309 1.90283 17.0718V19.1827C1.90283 25.6627 4.38723 31.9823 8.38359 35.6907C11.602 38.6741 14.1805 40.0599 16.4955 40.0663C18.8043 40.0599 21.3828 38.6741 24.6012 35.6907C28.5975 31.9887 31.0819 25.6691 31.0819 19.1891V17.0783C31.0819 15.7309 30.4483 14.4606 29.3943 13.6778Z" fill="#03101F"/>
<path fill-rule="evenodd" clip-rule="evenodd" d="M9.06107 18.9519C10.7801 20.6008 12.9633 21.6145 15.3285 21.8647C16.3198 23.5906 16.8656 25.7591 16.8656 28.0047C16.8656 31.4693 15.4603 34.7799 13.001 37.1601C11.9407 36.5121 10.7801 35.6075 9.50023 34.4206C7.37971 32.4573 5.72972 29.6728 4.71338 26.5098L9.06107 18.9519ZM15.774 9.95045C15.6046 9.77722 15.385 9.53983 15.0588 9.23187C12.8441 7.15955 9.92057 6.58212 7.5742 8.21175C8.06355 6.47305 9.0297 4.88833 10.3848 3.67573C10.5605 3.51533 10.8303 3.52175 11.0185 3.68215C12.543 5.0359 14.4377 5.78014 16.5017 5.78014C18.5658 5.78014 20.4604 5.0359 21.9849 3.68215C22.1669 3.52175 22.4429 3.51533 22.6186 3.67573C23.98 4.89475 24.9461 6.47305 25.4292 8.21175C23.0829 6.58853 20.1593 7.15955 17.9447 9.23187C17.6184 9.53983 17.3926 9.7708 17.2295 9.95045C16.897 10.2969 16.784 10.4188 16.508 10.4188C16.2319 10.4188 16.1002 10.3033 15.774 9.95045Z" fill="#475B87"/>
<path fill-rule="evenodd" clip-rule="evenodd" d="M26.954 13.9489L28.4095 15.0525C29.0494 15.5272 29.4133 16.2651 29.4133 17.0735V19.1843C29.4133 23.5278 28.2275 27.7815 26.1886 31.0857C26.7971 29.3278 27.1422 27.4736 27.1422 25.7156C27.1422 22.9376 26.3705 20.2686 24.9024 17.9524C25.8686 16.7719 26.5713 15.3155 26.954 13.9489ZM4.58185 15.046L6.05617 13.9297C6.43887 15.277 7.06624 16.5409 7.90692 17.6573L4.11132 24.2592C3.75999 22.6168 3.57178 20.9101 3.57178 19.1843V17.0735C3.57178 16.2651 3.94193 15.5272 4.58185 15.046Z" fill="white"/>
<path fill-rule="evenodd" clip-rule="evenodd" d="M17.9259 11.6469C17.4115 12.2885 17.0099 12.789 16.4955 12.789C15.9811 12.789 15.5795 12.2885 15.0651 11.6469C14.8518 11.3839 14.6197 11.0952 14.3562 10.8129C12.7187 9.02926 10.6233 8.58015 9.10505 9.20249C7.80639 9.72859 7.17901 10.954 7.35468 12.5067C7.67464 14.4443 8.55296 16.2086 9.90181 17.5816C11.6271 19.3396 13.9484 20.3084 16.4955 20.3084C19.0426 20.3084 21.3639 19.3396 23.0892 17.5816C24.438 16.2086 25.3164 14.4443 25.6363 12.5067C25.8057 10.9476 25.1846 9.72859 23.886 9.20249C22.3677 8.58656 20.2723 9.02926 18.6348 10.8129C18.3651 11.0952 18.1392 11.3839 17.9259 11.6469ZM16.4955 38.3562C17.6938 38.3562 19.0803 37.8108 20.6801 36.7073C23.4405 34.3912 25.5046 29.714 25.5046 25.7169C25.5046 23.3944 24.8897 21.1552 23.7228 19.192C21.9223 20.8088 19.6512 21.7519 17.1982 21.9059C18.0388 23.7152 18.4968 25.8324 18.4968 28.0074C18.4968 31.7286 17.0664 35.2894 14.5506 37.9456C15.247 38.215 15.8932 38.3562 16.4955 38.3562Z" fill="white"/>
<path fill-rule="evenodd" clip-rule="evenodd" d="M23.428 12.7732C23.2586 12.2214 22.763 11.8044 22.1921 11.721C21.3953 11.6055 20.5923 12.0931 20.0339 13.0234C19.8645 13.2993 19.9398 13.5367 20.0715 13.665C20.1594 13.7548 20.2723 13.7997 20.4041 13.8062H20.4103C20.5672 13.8062 20.7115 13.7035 20.8181 13.6265L20.8683 13.5944C21.4455 13.1967 21.9286 13.1646 22.443 13.4982C22.7253 13.6843 23.0202 13.7035 23.2272 13.5431C23.4405 13.3763 23.5221 13.0748 23.428 12.7732ZM16.4892 14.1398C17.0978 14.1398 17.5307 14.5889 17.5746 15.2562C17.5809 15.3524 17.5872 15.455 17.5872 15.5577C17.5872 16.6163 17.3801 17.4825 16.8908 18.4513L16.8719 18.4897C16.8029 18.6309 16.6963 18.849 16.4955 18.849C16.2948 18.849 16.1881 18.6309 16.1191 18.4897L16.1003 18.4513C15.6109 17.4825 15.4039 16.6163 15.4039 15.5577C15.4039 15.455 15.4039 15.3524 15.4164 15.2562C15.4478 14.5889 15.8807 14.1398 16.4892 14.1398ZM9.92693 13.0363C9.92693 12.106 10.5041 11.3553 11.2068 11.3553C11.9094 11.3553 12.4866 12.1124 12.4866 13.0363C12.4866 13.9666 11.9157 14.7172 11.2068 14.7172C10.4978 14.7172 9.92693 13.9601 9.92693 13.0363ZM27.2926 12.0803L29.3943 13.6778C30.4483 14.4606 31.0819 15.7309 31.0819 17.0783V19.1891C31.0819 25.6691 28.5975 31.9887 24.6012 35.6907C21.3828 38.6741 18.8043 40.0599 16.4955 40.0663C14.1805 40.0599 11.602 38.6741 8.38359 35.6907C4.38723 31.9823 1.90283 25.6627 1.90283 19.1827V17.0718C1.90283 15.7309 2.53648 14.4606 3.59674 13.6714L5.69844 12.0739C5.4914 10.0593 5.54787 5.9339 9.3372 2.45008C10.1089 1.75717 11.2758 1.76358 12.06 2.4565C13.2896 3.55361 14.8644 4.1567 16.4955 4.1567C18.1267 4.1567 19.7014 3.55361 20.931 2.4565C21.709 1.76358 22.8822 1.75717 23.6538 2.45008C27.3302 5.81841 27.5122 9.96306 27.2926 12.0803ZM21.9725 3.68193C20.4542 5.03568 18.5533 5.77992 16.4892 5.77992C14.4252 5.77992 12.5305 5.03568 11.006 3.68193C10.8241 3.52153 10.548 3.51512 10.3724 3.67551C9.01097 4.89453 8.04481 6.47283 7.56173 8.21153C9.90811 6.58832 12.8317 7.15933 15.0463 9.23165C15.3725 9.53961 15.5984 9.77059 15.7615 9.95023C16.094 10.2967 16.2069 10.4186 16.483 10.4186C16.759 10.4186 16.8719 10.2967 17.2045 9.95023C17.3738 9.777 17.5934 9.53961 17.9197 9.23165C20.1343 7.15933 23.0578 6.5819 25.4042 8.21153C24.9337 6.47283 23.9675 4.88811 22.6061 3.67551C22.4305 3.51512 22.1544 3.52153 21.9725 3.68193ZM17.9259 11.644C17.4115 12.2856 17.01 12.786 16.4955 12.786C15.9811 12.786 15.5796 12.2856 15.0651 11.644C14.8518 11.381 14.6197 11.0923 14.3562 10.81C12.7187 9.02634 10.6233 8.57723 9.10507 9.19957C7.80641 9.72567 7.17904 10.9511 7.3547 12.5037C7.67466 14.4413 8.55298 16.2057 9.90183 17.5787C11.6271 19.3366 13.9484 20.3054 16.4955 20.3054C19.0427 20.3054 21.3639 19.3366 23.0892 17.5787C24.4381 16.2057 25.3164 14.4413 25.6363 12.5037C25.8057 10.9447 25.1846 9.72567 23.886 9.19957C22.3677 8.58365 20.2723 9.02634 18.6349 10.81C18.3651 11.0923 18.1392 11.381 17.9259 11.644ZM3.57164 17.0718V19.1827C3.57164 20.9085 3.75986 22.6151 4.11118 24.2576L7.90679 17.6557C7.05984 16.5393 6.43246 15.2818 6.05604 13.9281L4.58171 15.0444C3.94179 15.5256 3.57164 16.2634 3.57164 17.0718ZM9.50659 34.4203C10.7864 35.6009 11.9471 36.5119 13.0073 37.1599C15.4666 34.7796 16.8719 31.469 16.8719 28.0045C16.8719 25.7589 16.3261 23.5839 15.3349 21.8645C12.9697 21.6143 10.7864 20.6006 9.06743 18.9517L4.71346 26.5096C5.72981 29.6726 7.38607 32.4571 9.50659 34.4203ZM16.4955 38.3533C17.6938 38.3533 19.0803 37.8079 20.6801 36.7044C23.4405 34.3883 25.5046 29.7111 25.5046 25.714C25.5046 23.3915 24.8898 21.1523 23.7229 19.1891C21.9223 20.8059 19.6512 21.749 17.1982 21.903C18.0389 23.7123 18.4968 25.8295 18.4968 28.0045C18.4968 31.7257 17.0664 35.2865 14.5507 37.9426C15.2471 38.2121 15.8932 38.3533 16.4955 38.3533ZM26.1884 31.0841C28.2274 27.7799 29.4131 23.5262 29.4131 19.1827V17.0718C29.4131 16.2634 29.0492 15.5256 28.4093 15.0508L26.9538 13.9473C26.5711 15.3139 25.8685 16.7703 24.896 17.9572C26.3641 20.2669 27.1358 22.9424 27.1358 25.7204C27.1358 27.472 26.7907 29.3261 26.1884 31.0841Z" fill="#03101F"/>
</g>
<path d="M43.8447 31.2751C45.697 31.2751 47.397 30.784 48.894 29.8535V22.7975H46.0268V28.1218C45.3418 28.3803 44.6821 28.4578 43.9462 28.4578C41.3836 28.4578 39.9627 26.8295 39.9627 22.5649C39.9627 18.4295 41.3582 16.8271 43.9462 16.8271C45.088 16.8271 46.2552 17.1631 47.3209 17.7834L48.5895 15.2504C47.1433 14.3717 45.6209 14.0098 43.8955 14.0098C39.4298 14.0098 36.791 16.9821 36.791 22.5649C36.791 28.5354 39.4044 31.2751 43.8447 31.2751Z" fill="#03101F"/>
<path d="M53.7157 16.3877C54.8575 16.3877 55.4664 15.6381 55.4664 14.656C55.4664 13.6997 54.8575 12.8984 53.7157 12.8984C52.5993 12.8984 51.9649 13.6997 51.9649 14.656C51.9649 15.6381 52.5993 16.3877 53.7157 16.3877ZM55.2127 18.1194H52.2187V31.0166H55.2127V18.1194Z" fill="#03101F"/>
<path d="M66.7698 18.1194H62.9638V14.8886H60.7817L60.1728 18.1194L57.7623 18.4812V20.6781H60.0205V26.9587C60.0205 29.8794 61.5683 31.2751 64.1056 31.2751C65.2474 31.2751 66.3638 30.9649 67.328 30.4221L66.4907 28.0184C65.7548 28.3803 65.1205 28.5354 64.5116 28.5354C63.4713 28.5354 62.9638 28.096 62.9638 26.8295V20.6781H66.7698V18.1194Z" fill="#03101F"/>
<path d="M76.2797 31.2751C78.132 31.2751 79.832 30.784 81.329 29.8535V22.7975H78.4618V28.1218C77.7768 28.3803 77.1171 28.4578 76.3812 28.4578C73.8186 28.4578 72.3977 26.8295 72.3977 22.5649C72.3977 18.4295 73.7932 16.8271 76.3812 16.8271C77.523 16.8271 78.6902 17.1631 79.7559 17.7834L81.0245 15.2504C79.5783 14.3717 78.0559 14.0098 76.3305 14.0098C71.8648 14.0098 69.226 16.9821 69.226 22.5649C69.226 28.5354 71.8394 31.2751 76.2797 31.2751Z" fill="#03101F"/>
<path d="M84.5522 18.1194V26.9329C84.5522 29.7501 85.9223 31.2751 88.3328 31.2751C89.5761 31.2751 90.6925 30.8615 92.2149 29.4658V31.0166H95.1074V18.1194H92.1134V27.2689C90.9462 28.1735 90.0074 28.4837 89.2462 28.4837C88.1044 28.4837 87.5462 27.9151 87.5462 26.5194V18.1194H84.5522Z" fill="#03101F"/>
<path d="M108.719 31.0166V22.6683C108.719 19.2566 107.019 17.8609 103.949 17.8609C102.401 17.8609 100.599 18.3261 98.7726 19.2307L99.6861 21.6344C101.31 20.8849 102.502 20.5747 103.492 20.5747C105.141 20.5747 105.801 21.2209 105.801 22.8751V23.6246H102.934C99.7876 23.6246 98.3413 25.3304 98.3413 27.4498C98.3413 29.776 99.9652 31.2751 102.173 31.2751C103.594 31.2751 104.786 30.8098 105.877 29.5951V31.0166H108.719ZM102.985 28.8714C101.894 28.8714 101.234 28.3286 101.234 27.2689C101.234 26.3901 101.767 25.744 103.111 25.744H105.801V27.6566C104.786 28.5354 103.949 28.8714 102.985 28.8714Z" fill="#03101F"/>
<path d="M115.449 31.0166V21.9963C116.769 21.1175 118.063 20.8332 119.737 20.8332V17.8609C118.215 17.8609 116.946 18.2744 115.348 19.8252V18.1194H112.455V31.0166H115.449Z" fill="#03101F"/>
<path d="M132.82 31.0166V13.4929H129.826V18.4812C128.964 18.0677 128.101 17.8609 127.162 17.8609C124.117 17.8609 121.707 19.7994 121.707 24.6067C121.707 29.5175 123.813 31.2751 126.477 31.2751C127.746 31.2751 128.862 30.8098 129.953 29.6209V31.0166H132.82ZM127.34 28.5612C125.563 28.5612 124.726 27.6307 124.726 24.6067C124.726 21.4277 125.64 20.4455 127.695 20.4455C128.355 20.4455 129.09 20.6006 129.826 20.9107V27.6049C128.964 28.3286 128.126 28.5612 127.34 28.5612Z" fill="#03101F"/>
<path d="M138.21 16.3877C139.352 16.3877 139.961 15.6381 139.961 14.656C139.961 13.6997 139.352 12.8984 138.21 12.8984C137.094 12.8984 136.459 13.6997 136.459 14.656C136.459 15.6381 137.094 16.3877 138.21 16.3877ZM139.707 18.1194H136.713V31.0166H139.707V18.1194Z" fill="#03101F"/>
<path d="M153.345 31.0166V22.6683C153.345 19.2566 151.645 17.8609 148.575 17.8609C147.027 17.8609 145.225 18.3261 143.399 19.2307L144.312 21.6344C145.936 20.8849 147.128 20.5747 148.118 20.5747C149.767 20.5747 150.427 21.2209 150.427 22.8751V23.6246H147.56C144.414 23.6246 142.967 25.3304 142.967 27.4498C142.967 29.776 144.591 31.2751 146.799 31.2751C148.22 31.2751 149.412 30.8098 150.503 29.5951V31.0166H153.345ZM147.611 28.8714C146.52 28.8714 145.86 28.3286 145.86 27.2689C145.86 26.3901 146.393 25.744 147.737 25.744H150.427V27.6566C149.412 28.5354 148.575 28.8714 147.611 28.8714Z" fill="#03101F"/>
<path d="M160.075 31.0166V21.8929C161.293 20.9624 162.308 20.6523 163.095 20.6523C164.236 20.6523 164.795 21.2467 164.795 22.6424V31.0166H167.789V22.2031C167.789 19.3858 166.418 17.8609 164.008 17.8609C162.739 17.8609 161.547 18.2744 159.974 19.696V18.1194H157.081V31.0166H160.075Z" fill="#03101F"/>
<defs>
<clipPath id="clip0">
<rect width="32.9851" height="42" fill="white"/>
</clipPath>
</defs>
</svg>
